<?xml version="1.0" encoding="UTF-8" standalone="no"?>
<svg
   xmlns:dc="http://purl.org/dc/elements/1.1/"
   xmlns:cc="http://creativecommons.org/ns#"
   xmlns:rdf="http://www.w3.org/1999/02/22-rdf-syntax-ns#"
   xmlns:svg="http://www.w3.org/2000/svg"
   xmlns="http://www.w3.org/2000/svg"
   id="svg8"
   version="1.1"
   viewBox="0 0 11.905561 15.874165"
   height="15.874165mm"
   width="11.905561mm">
  <defs
     id="defs2">
    <style
       id="style4487">
      .cls-1 {
        fill: #3ab7ee;
        fill-rule: evenodd;
      }
    </style>
  </defs>
  <metadata
     id="metadata5">
    <rdf:RDF>
      <cc:Work
         rdf:about="">
        <dc:format>image/svg+xml</dc:format>
        <dc:type
           rdf:resource="http://purl.org/dc/dcmitype/StillImage" />
        <dc:title></dc:title>
      </cc:Work>
    </rdf:RDF>
  </metadata>
  <g
     transform="translate(-82.071511,-165.70915)"
     id="layer1">
    <path
       style="fill:#3ab7ee;fill-rule:evenodd;stroke-width:0.26458332"
       class="cls-1"
       d="m 87.77524,181.58331 c 1.917965,-0.0675 5.892535,-0.37941 6.201833,-4.51326 -0.07408,-1.29169 -0.322263,-1.96665 -0.943769,-2.73553 -0.341577,-0.42333 -3.358091,-3.81 -4.180416,-4.7871 -0.822325,-0.97711 -1.515004,-1.58195 -1.348052,-2.46063 0.05053,-0.35216 2.040996,-1.69121 4.718843,0.82021 0.327554,0.29104 1.349375,0.0317 0.404284,-0.68395 -0.945092,-0.71569 -2.034117,-1.93516 -6.066896,-1.36789 -4.016375,0.90593 -4.449233,3.87429 -4.449233,4.51353 0,1.60099 0.718079,2.79029 1.617927,3.82957 0.899848,1.03929 3.298031,3.59834 3.775075,4.10316 0.477044,0.50483 0.943769,0.94933 0.943769,1.64042 0,0.69109 -0.547952,0.9525 -1.483254,0.95753 -0.935303,0.005 -2.275417,-0.61728 -2.831042,-0.95753 A 8.7794042,8.7794042 0 0 1 82.652642,178.711 c -0.239712,-0.25956 -1.097227,0.0735 -0.134673,0.82021 0.962554,0.74665 1.881188,1.88859 5.257271,2.0521 z"
       id="path4491" />
  </g>
</svg>
